# xmcd
#
# Track frame offsets: 
#        150
#        11713
#        23788
#        38318
#        48058
#        61390
#        73890
#        82878
#        93840
#        106038
#        118220
#        130788
#        139450
#        150385
#
# Disc length: 2181 seconds
#
# Revision: 3
# Processed by: cddbd v1.5.2PL0 Copyright (c) Steve Scherf et al.
# Submitted via: ExactAudioCopy v1.0b6
#
DISCID=a908830e
DTITLE=Love - Love
DYEAR=1966
DGENRE=Folk/Rock
TTITLE0=My Little Red Book
TTITLE1=Can't Explain
TTITLE2=A Message To Pretty
TTITLE3=My Flash On You
TTITLE4=Softly To Me
TTITLE5=No Matter What You Do
TTITLE6=Emotions
TTITLE7=You I'll Be Following
TTITLE8=Gazing
TTITLE9=Hey Joe
TTITLE10=Signed D.C.
TTITLE11=Colored Balls Falling
TTITLE12=Mushroom Clouds
TTITLE13=And More
EXTD=
EXTT0=
EXTT1=
EXTT2=
EXTT3=
EXTT4=
EXTT5=
EXTT6=
EXTT7=
EXTT8=
EXTT9=
EXTT10=
EXTT11=
EXTT12=
EXTT13=
PLAYORDER=
